<svg xmlns="http://www.w3.org/2000/svg" xmlns:xlink="http://www.w3.org/1999/xlink" width="1150" zoomAndPan="magnify" viewBox="0 0 862.5 135.000003" height="180" preserveAspectRatio="xMidYMid meet" version="1.0"><defs><g/><clipPath id="a2c201085f"><rect x="0" width="718" y="0" height="114"/></clipPath><clipPath id="331da20199"><path d="M 6.945312 13.214844 L 117.875 13.214844 L 117.875 102 L 6.945312 102 Z M 6.945312 13.214844 " clip-rule="nonzero"/></clipPath></defs><g transform="matrix(1, 0, 0, 1, 134, -0.000000000000003367)"><g clip-path="url(#a2c201085f)"><g fill="#000000" fill-opacity="1"><g transform="translate(0.733771, 65.589164)"><g><path d="M 27.03125 -34.9375 L 36.484375 -34.9375 L 36.484375 0 L 27.03125 0 L 27.03125 -3.921875 C 25.09375 -1.398438 22.160156 -0.140625 18.234375 -0.140625 C 13.460938 -0.0859375 9.367188 -1.753906 5.953125 -5.140625 C 2.523438 -8.515625 0.789062 -12.613281 0.75 -17.4375 C 0.695312 -22.207031 2.363281 -26.304688 5.75 -29.734375 C 9.125 -33.148438 13.222656 -34.882812 18.046875 -34.9375 C 22.003906 -34.9375 25 -33.648438 27.03125 -31.078125 Z M 24.1875 -11.484375 C 25.851562 -13.148438 26.6875 -15.175781 26.6875 -17.5625 C 26.6875 -20 25.832031 -22.023438 24.125 -23.640625 C 22.40625 -25.359375 20.398438 -26.171875 18.109375 -26.078125 C 15.722656 -26.078125 13.695312 -25.242188 12.03125 -23.578125 C 10.363281 -21.910156 9.53125 -19.882812 9.53125 -17.5 C 9.53125 -15.15625 10.382812 -13.128906 12.09375 -11.421875 C 13.757812 -9.753906 15.785156 -8.921875 18.171875 -8.921875 C 20.609375 -9.003906 22.613281 -9.859375 24.1875 -11.484375 Z M 24.1875 -11.484375 "/></g></g></g><g fill="#000000" fill-opacity="1"><g transform="translate(39.245047, 65.589164)"><g><path d="M 27.03125 -34.9375 L 36.484375 -34.9375 L 36.484375 0 L 27.03125 0 L 27.03125 -3.921875 C 25.09375 -1.398438 22.160156 -0.140625 18.234375 -0.140625 C 13.460938 -0.0859375 9.367188 -1.753906 5.953125 -5.140625 C 2.523438 -8.515625 0.789062 -12.613281 0.75 -17.4375 C 0.695312 -22.207031 2.363281 -26.304688 5.75 -29.734375 C 9.125 -33.148438 13.222656 -34.882812 18.046875 -34.9375 C 22.003906 -34.9375 25 -33.648438 27.03125 -31.078125 Z M 24.1875 -11.484375 C 25.851562 -13.148438 26.6875 -15.175781 26.6875 -17.5625 C 26.6875 -20 25.832031 -22.023438 24.125 -23.640625 C 22.40625 -25.359375 20.398438 -26.171875 18.109375 -26.078125 C 15.722656 -26.078125 13.695312 -25.242188 12.03125 -23.578125 C 10.363281 -21.910156 9.53125 -19.882812 9.53125 -17.5 C 9.53125 -15.15625 10.382812 -13.128906 12.09375 -11.421875 C 13.757812 -9.753906 15.785156 -8.921875 18.171875 -8.921875 C 20.609375 -9.003906 22.613281 -9.859375 24.1875 -11.484375 Z M 24.1875 -11.484375 "/></g></g></g><g fill="#000000" fill-opacity="1"><g transform="translate(77.756323, 65.589164)"><g><path d="M 11.484375 -46.953125 L 11.484375 0 L 2.03125 0 L 2.03125 -46.953125 Z M 11.484375 -46.953125 "/></g></g></g><g fill="#000000" fill-opacity="1"><g transform="translate(91.269054, 65.589164)"><g><path d="M 27.96875 -34.859375 L 36.828125 -34.859375 L 36.828125 -0.0625 C 36.828125 4.707031 35.132812 8.78125 31.75 12.15625 C 28.414062 15.539062 24.363281 17.253906 19.59375 17.296875 C 15.132812 17.335938 11.238281 15.875 7.90625 12.90625 C 4.613281 10.019531 2.722656 6.394531 2.234375 2.03125 L 11.140625 2.03125 C 11.460938 3.46875 12.226562 4.796875 13.4375 6.015625 C 15.101562 7.679688 17.132812 8.515625 19.53125 8.515625 C 21.914062 8.515625 23.914062 7.660156 25.53125 5.953125 C 27.195312 4.285156 28.03125 2.28125 28.03125 -0.0625 L 27.96875 -3.515625 C 25.675781 -1.210938 22.882812 -0.0625 19.59375 -0.0625 C 14.769531 -0.0195312 10.648438 -1.6875 7.234375 -5.0625 C 3.804688 -8.445312 2.09375 -12.546875 2.09375 -17.359375 C 2.050781 -22.179688 3.71875 -26.28125 7.09375 -29.65625 C 10.46875 -33.082031 14.566406 -34.816406 19.390625 -34.859375 C 23.222656 -34.859375 26.082031 -33.664062 27.96875 -31.28125 Z M 27.96875 -18.4375 C 27.789062 -20.425781 26.957031 -22.140625 25.46875 -23.578125 C 23.757812 -25.203125 21.734375 -26.015625 19.390625 -26.015625 C 17.046875 -26.015625 15.039062 -25.179688 13.375 -23.515625 C 11.707031 -21.753906 10.875 -19.726562 10.875 -17.4375 C 10.875 -15.09375 11.726562 -13.0625 13.4375 -11.34375 C 15.101562 -9.675781 17.132812 -8.84375 19.53125 -8.84375 C 21.957031 -8.9375 23.957031 -9.796875 25.53125 -11.421875 C 26.9375 -12.816406 27.75 -14.484375 27.96875 -16.421875 Z M 27.96875 -18.4375 "/></g></g></g><g fill="#000000" fill-opacity="1"><g transform="translate(130.118155, 65.589164)"><g><path d="M 18.046875 -34.796875 C 22.859375 -34.835938 26.953125 -33.171875 30.328125 -29.796875 C 33.753906 -26.367188 35.46875 -22.269531 35.46875 -17.5 C 35.507812 -12.675781 33.84375 -8.578125 30.46875 -5.203125 C 27.09375 -1.773438 23.015625 -0.0390625 18.234375 0 C 13.421875 0.0390625 9.300781 -1.625 5.875 -5 C 2.457031 -8.375 0.75 -12.472656 0.75 -17.296875 C 0.695312 -22.117188 2.363281 -26.21875 5.75 -29.59375 C 9.125 -33.019531 13.222656 -34.753906 18.046875 -34.796875 Z M 24.1875 -11.34375 C 25.851562 -13.007812 26.6875 -15.039062 26.6875 -17.4375 C 26.6875 -19.769531 25.832031 -21.796875 24.125 -23.515625 C 22.40625 -25.128906 20.378906 -25.9375 18.046875 -25.9375 C 15.703125 -25.9375 13.695312 -25.101562 12.03125 -23.4375 C 10.363281 -21.6875 9.53125 -19.660156 9.53125 -17.359375 C 9.53125 -15.015625 10.382812 -12.988281 12.09375 -11.28125 C 13.757812 -9.613281 15.785156 -8.78125 18.171875 -8.78125 C 20.609375 -8.875 22.613281 -9.726562 24.1875 -11.34375 Z M 24.1875 -11.34375 "/></g></g></g><g fill="#000000" fill-opacity="1"><g transform="translate(166.332275, 65.589164)"><g><path d="M 11.484375 -29.59375 C 12.253906 -31.75 13.539062 -33.257812 15.34375 -34.125 C 17.09375 -34.976562 19.722656 -35.40625 23.234375 -35.40625 L 23.234375 -25.734375 C 19.816406 -25.734375 16.957031 -24.566406 14.65625 -22.234375 C 12.539062 -20.160156 11.484375 -17.882812 11.484375 -15.40625 L 11.484375 0 L 2.03125 0 L 2.03125 -34.796875 L 11.484375 -34.796875 Z M 11.484375 -29.59375 "/></g></g></g><g fill="#000000" fill-opacity="1"><g transform="translate(190.587602, 65.589164)"><g><path d="M 11.421875 -47.09375 L 11.421875 -39.125 L 2.03125 -39.125 L 2.03125 -47.09375 Z M 11.484375 -34.734375 L 11.484375 0 L 2.03125 0 L 2.03125 -34.734375 Z M 11.484375 -34.734375 "/></g></g></g><g fill="#000000" fill-opacity="1"><g transform="translate(204.100352, 65.589164)"><g><path d="M 30.40625 0 L 19.53125 -10.8125 L 8.71875 0 L 2.03125 -6.6875 L 12.84375 -17.5 L 2.03125 -28.375 L 8.71875 -35.0625 L 19.53125 -24.1875 L 30.40625 -35.0625 L 37.09375 -28.375 L 26.21875 -17.5 L 37.09375 -6.6875 Z M 30.40625 0 "/></g></g></g><g fill="#000000" fill-opacity="1"><g transform="translate(243.219689, 65.589164)"><g/></g></g><g fill="#000000" fill-opacity="1"><g transform="translate(260.786238, 65.589164)"><g><path d="M 50.46875 -35.265625 L 31.546875 0 L 31.484375 -0.0625 L 25.40625 -11.421875 L 19.25 0 L 19.25 -0.0625 L 0.34375 -35.265625 L 10.0625 -35.265625 L 19.25 -17.640625 L 20.609375 -20.265625 L 12.5625 -35.265625 L 22.296875 -35.265625 L 31.546875 -17.640625 L 40.734375 -35.265625 Z M 50.46875 -35.265625 "/></g></g></g><g fill="#000000" fill-opacity="1"><g transform="translate(306.458869, 65.589164)"><g><path d="M 18.046875 -34.796875 C 22.859375 -34.835938 26.953125 -33.171875 30.328125 -29.796875 C 33.753906 -26.367188 35.46875 -22.269531 35.46875 -17.5 C 35.507812 -12.675781 33.84375 -8.578125 30.46875 -5.203125 C 27.09375 -1.773438 23.015625 -0.0390625 18.234375 0 C 13.421875 0.0390625 9.300781 -1.625 5.875 -5 C 2.457031 -8.375 0.75 -12.472656 0.75 -17.296875 C 0.695312 -22.117188 2.363281 -26.21875 5.75 -29.59375 C 9.125 -33.019531 13.222656 -34.753906 18.046875 -34.796875 Z M 24.1875 -11.34375 C 25.851562 -13.007812 26.6875 -15.039062 26.6875 -17.4375 C 26.6875 -19.769531 25.832031 -21.796875 24.125 -23.515625 C 22.40625 -25.128906 20.378906 -25.9375 18.046875 -25.9375 C 15.703125 -25.9375 13.695312 -25.101562 12.03125 -23.4375 C 10.363281 -21.6875 9.53125 -19.660156 9.53125 -17.359375 C 9.53125 -15.015625 10.382812 -12.988281 12.09375 -11.28125 C 13.757812 -9.613281 15.785156 -8.78125 18.171875 -8.78125 C 20.609375 -8.875 22.613281 -9.726562 24.1875 -11.34375 Z M 24.1875 -11.34375 "/></g></g></g><g fill="#000000" fill-opacity="1"><g transform="translate(342.672989, 65.589164)"><g><path d="M 11.484375 -29.59375 C 12.253906 -31.75 13.539062 -33.257812 15.34375 -34.125 C 17.09375 -34.976562 19.722656 -35.40625 23.234375 -35.40625 L 23.234375 -25.734375 C 19.816406 -25.734375 16.957031 -24.566406 14.65625 -22.234375 C 12.539062 -20.160156 11.484375 -17.882812 11.484375 -15.40625 L 11.484375 0 L 2.03125 0 L 2.03125 -34.796875 L 11.484375 -34.796875 Z M 11.484375 -29.59375 "/></g></g></g><g fill="#000000" fill-opacity="1"><g transform="translate(366.928317, 65.589164)"><g><path d="M 11.484375 -46.953125 L 11.484375 0 L 2.03125 0 L 2.03125 -46.953125 Z M 11.484375 -46.953125 "/></g></g></g><g fill="#000000" fill-opacity="1"><g transform="translate(380.441066, 65.589164)"><g><path d="M 29.25 0 L 29.25 -3.984375 C 26.007812 -1.328125 22.335938 0 18.234375 0 C 13.460938 0.0390625 9.367188 -1.625 5.953125 -5 C 2.523438 -8.375 0.789062 -12.472656 0.75 -17.296875 C 0.695312 -22.066406 2.363281 -26.164062 5.75 -29.59375 C 9.125 -33.019531 13.222656 -34.753906 18.046875 -34.796875 C 22.234375 -34.796875 25.945312 -33.46875 29.1875 -30.8125 L 29.1875 -47.15625 L 38.640625 -47.15625 L 38.71875 0 Z M 24.25 -11.34375 C 25.914062 -13.007812 26.75 -15.039062 26.75 -17.4375 C 26.664062 -19.863281 25.8125 -21.890625 24.1875 -23.515625 C 22.476562 -25.128906 20.453125 -25.9375 18.109375 -25.9375 C 15.722656 -25.9375 13.695312 -25.101562 12.03125 -23.4375 C 10.363281 -21.59375 9.550781 -19.566406 9.59375 -17.359375 C 9.59375 -14.972656 10.425781 -12.945312 12.09375 -11.28125 C 13.757812 -9.613281 15.785156 -8.78125 18.171875 -8.78125 C 20.609375 -8.875 22.632812 -9.726562 24.25 -11.34375 Z M 24.25 -11.34375 "/></g></g></g><g fill="#000000" fill-opacity="1"><g transform="translate(421.181938, 65.589164)"><g/></g></g><g fill="#000000" fill-opacity="1"><g transform="translate(438.748505, 65.589164)"><g><path d="M 27.03125 -34.9375 L 36.484375 -34.9375 L 36.484375 0 L 27.03125 0 L 27.03125 -3.921875 C 25.09375 -1.398438 22.160156 -0.140625 18.234375 -0.140625 C 13.460938 -0.0859375 9.367188 -1.753906 5.953125 -5.140625 C 2.523438 -8.515625 0.789062 -12.613281 0.75 -17.4375 C 0.695312 -22.207031 2.363281 -26.304688 5.75 -29.734375 C 9.125 -33.148438 13.222656 -34.882812 18.046875 -34.9375 C 22.003906 -34.9375 25 -33.648438 27.03125 -31.078125 Z M 24.1875 -11.484375 C 25.851562 -13.148438 26.6875 -15.175781 26.6875 -17.5625 C 26.6875 -20 25.832031 -22.023438 24.125 -23.640625 C 22.40625 -25.359375 20.398438 -26.171875 18.109375 -26.078125 C 15.722656 -26.078125 13.695312 -25.242188 12.03125 -23.578125 C 10.363281 -21.910156 9.53125 -19.882812 9.53125 -17.5 C 9.53125 -15.15625 10.382812 -13.128906 12.09375 -11.421875 C 13.757812 -9.753906 15.785156 -8.921875 18.171875 -8.921875 C 20.609375 -9.003906 22.613281 -9.859375 24.1875 -11.484375 Z M 24.1875 -11.484375 "/></g></g></g><g fill="#000000" fill-opacity="1"><g transform="translate(477.259753, 65.589164)"><g><path d="M 29.859375 -4.1875 C 26.578125 -1.394531 22.75 0 18.375 0 C 13.550781 -0.0390625 9.453125 -1.773438 6.078125 -5.203125 C 2.703125 -8.628906 1.035156 -12.726562 1.078125 -17.5 C 1.128906 -22.320312 2.863281 -26.421875 6.28125 -29.796875 C 9.707031 -33.171875 13.804688 -34.835938 18.578125 -34.796875 C 22.898438 -34.753906 26.6875 -33.3125 29.9375 -30.46875 L 23.640625 -24.25 C 22.109375 -25.375 20.398438 -25.9375 18.515625 -25.9375 C 16.171875 -25.9375 14.144531 -25.128906 12.4375 -23.515625 C 10.769531 -21.847656 9.9375 -19.820312 9.9375 -17.4375 C 9.84375 -15.09375 10.648438 -13.0625 12.359375 -11.34375 C 13.984375 -9.726562 16.007812 -8.875 18.4375 -8.78125 C 20.332031 -8.78125 22.046875 -9.34375 23.578125 -10.46875 Z M 29.859375 -4.1875 "/></g></g></g><g fill="#000000" fill-opacity="1"><g transform="translate(508.203915, 65.589164)"><g><path d="M 27.03125 -34.9375 L 36.484375 -34.9375 L 36.484375 0 L 27.03125 0 L 27.03125 -3.921875 C 25.09375 -1.398438 22.160156 -0.140625 18.234375 -0.140625 C 13.460938 -0.0859375 9.367188 -1.753906 5.953125 -5.140625 C 2.523438 -8.515625 0.789062 -12.613281 0.75 -17.4375 C 0.695312 -22.207031 2.363281 -26.304688 5.75 -29.734375 C 9.125 -33.148438 13.222656 -34.882812 18.046875 -34.9375 C 22.003906 -34.9375 25 -33.648438 27.03125 -31.078125 Z M 24.1875 -11.484375 C 25.851562 -13.148438 26.6875 -15.175781 26.6875 -17.5625 C 26.6875 -20 25.832031 -22.023438 24.125 -23.640625 C 22.40625 -25.359375 20.398438 -26.171875 18.109375 -26.078125 C 15.722656 -26.078125 13.695312 -25.242188 12.03125 -23.578125 C 10.363281 -21.910156 9.53125 -19.882812 9.53125 -17.5 C 9.53125 -15.15625 10.382812 -13.128906 12.09375 -11.421875 C 13.757812 -9.753906 15.785156 -8.921875 18.171875 -8.921875 C 20.609375 -9.003906 22.613281 -9.859375 24.1875 -11.484375 Z M 24.1875 -11.484375 "/></g></g></g><g fill="#000000" fill-opacity="1"><g transform="translate(546.715199, 65.589164)"><g><path d="M 29.25 0 L 29.25 -3.984375 C 26.007812 -1.328125 22.335938 0 18.234375 0 C 13.460938 0.0390625 9.367188 -1.625 5.953125 -5 C 2.523438 -8.375 0.789062 -12.472656 0.75 -17.296875 C 0.695312 -22.066406 2.363281 -26.164062 5.75 -29.59375 C 9.125 -33.019531 13.222656 -34.753906 18.046875 -34.796875 C 22.234375 -34.796875 25.945312 -33.46875 29.1875 -30.8125 L 29.1875 -47.15625 L 38.640625 -47.15625 L 38.71875 0 Z M 24.25 -11.34375 C 25.914062 -13.007812 26.75 -15.039062 26.75 -17.4375 C 26.664062 -19.863281 25.8125 -21.890625 24.1875 -23.515625 C 22.476562 -25.128906 20.453125 -25.9375 18.109375 -25.9375 C 15.722656 -25.9375 13.695312 -25.101562 12.03125 -23.4375 C 10.363281 -21.59375 9.550781 -19.566406 9.59375 -17.359375 C 9.59375 -14.972656 10.425781 -12.945312 12.09375 -11.28125 C 13.757812 -9.613281 15.785156 -8.78125 18.171875 -8.78125 C 20.609375 -8.875 22.632812 -9.726562 24.25 -11.34375 Z M 24.25 -11.34375 "/></g></g></g><g fill="#000000" fill-opacity="1"><g transform="translate(587.456071, 65.589164)"><g><path d="M 35.53125 -15.875 C 35.582031 -14.925781 35.582031 -14.363281 35.53125 -14.1875 L 10.140625 -14.25 C 10.492188 -13.21875 11.144531 -12.226562 12.09375 -11.28125 C 13.851562 -9.613281 15.878906 -8.78125 18.171875 -8.78125 C 20.609375 -8.875 22.632812 -9.726562 24.25 -11.34375 L 24.53125 -11.625 L 33.3125 -8.84375 C 31.375 -5.832031 29.347656 -3.671875 27.234375 -2.359375 C 24.835938 -0.828125 21.835938 -0.0390625 18.234375 0 C 13.460938 0.0390625 9.367188 -1.625 5.953125 -5 C 2.523438 -8.375 0.789062 -12.472656 0.75 -17.296875 C 0.695312 -22.066406 2.363281 -26.164062 5.75 -29.59375 C 9.125 -33.019531 13.222656 -34.753906 18.046875 -34.796875 C 22.816406 -34.835938 26.910156 -33.171875 30.328125 -29.796875 C 33.753906 -26.421875 35.488281 -22.320312 35.53125 -17.5 Z M 18.109375 -25.9375 C 15.722656 -25.9375 13.695312 -25.101562 12.03125 -23.4375 C 11.175781 -22.5 10.566406 -21.554688 10.203125 -20.609375 L 26.078125 -20.609375 C 25.710938 -21.554688 25.082031 -22.523438 24.1875 -23.515625 C 22.476562 -25.128906 20.453125 -25.9375 18.109375 -25.9375 Z M 18.109375 -25.9375 "/></g></g></g><g fill="#000000" fill-opacity="1"><g transform="translate(623.737769, 65.589164)"><g><path d="M 44.59375 -34.859375 C 49.28125 -34.910156 53.085938 -33.515625 56.015625 -30.671875 C 59.160156 -27.703125 60.734375 -23.535156 60.734375 -18.171875 L 60.734375 0 L 51.953125 0 L 51.953125 -17.5625 C 51.953125 -18.238281 51.84375 -19.003906 51.625 -19.859375 C 51.300781 -20.898438 50.867188 -21.828125 50.328125 -22.640625 C 48.890625 -24.929688 46.773438 -26.078125 43.984375 -26.078125 C 41.015625 -26.078125 38.851562 -24.929688 37.5 -22.640625 C 37 -21.773438 36.640625 -20.804688 36.421875 -19.734375 C 36.234375 -18.960938 36.140625 -18.195312 36.140625 -17.4375 L 36.140625 0 L 27.296875 0 L 27.296875 -17.5625 C 27.296875 -18.238281 27.179688 -19.003906 26.953125 -19.859375 C 26.679688 -20.898438 26.273438 -21.828125 25.734375 -22.640625 C 24.253906 -24.929688 22.140625 -26.078125 19.390625 -26.078125 C 16.367188 -26.078125 14.1875 -24.929688 12.84375 -22.640625 C 12.34375 -21.773438 11.976562 -20.804688 11.75 -19.734375 C 11.570312 -18.960938 11.484375 -18.195312 11.484375 -17.4375 L 11.484375 0 L 2.03125 0 L 2.03125 -34.9375 L 11.484375 -34.9375 L 11.484375 -31.28125 C 13.691406 -33.664062 16.53125 -34.859375 20 -34.859375 C 25.09375 -34.953125 29.210938 -32.992188 32.359375 -28.984375 L 35.203125 -31.625 C 37.859375 -33.78125 40.988281 -34.859375 44.59375 -34.859375 Z M 44.59375 -34.859375 "/></g></g></g><g fill="#000000" fill-opacity="1"><g transform="translate(680.558278, 65.589164)"><g><path d="M 34.796875 -34.859375 L 21.078125 1.546875 C 19.585938 5.148438 17.222656 8.015625 13.984375 10.140625 C 10.742188 12.253906 7.207031 13.265625 3.375 13.171875 L 3.375 3.71875 C 4.769531 3.757812 6.164062 3.46875 7.5625 2.84375 C 9.550781 1.9375 11.039062 0.511719 12.03125 -1.421875 L 13.921875 -6.625 L 2.03125 -34.859375 L 12.4375 -34.859375 L 18.71875 -19.65625 L 24.328125 -34.859375 Z M 34.796875 -34.859375 "/></g></g></g><g fill="#ff751f" fill-opacity="1"><g transform="translate(1.909039, 105.905435)"><g><path d="M 14.4375 0 L 13.15625 -2.484375 L 6.46875 -2.484375 L 5.1875 0 L 0.265625 0 L 9.828125 -17.734375 L 19.34375 0 Z M 11.4375 -5.8125 L 9.828125 -8.921875 L 8.1875 -5.8125 Z M 11.4375 -5.8125 "/></g></g></g><g fill="#ff751f" fill-opacity="1"><g transform="translate(33.304529, 105.905435)"><g><path d="M 0.40625 -17.734375 L 4.671875 -17.734375 L 4.671875 0 L 0.40625 0 Z M 0.40625 -17.734375 "/></g></g></g><g fill="#ff751f" fill-opacity="1"><g transform="translate(50.162155, 105.905435)"><g/></g></g><g fill="#ff751f" fill-opacity="1"><g transform="translate(69.040143, 105.905435)"><g><path d="M 8.125 -14.046875 C 10.050781 -14.066406 11.707031 -13.394531 13.09375 -12.03125 C 14.476562 -10.664062 15.179688 -9.007812 15.203125 -7.0625 C 15.210938 -5.132812 14.535156 -3.476562 13.171875 -2.09375 C 11.804688 -0.71875 10.15625 -0.0195312 8.21875 0 C 6.632812 0 5.441406 -0.5 4.640625 -1.5 L 4.640625 5.234375 L 0.8125 5.234375 L 0.8125 -14.015625 L 4.640625 -14.015625 L 4.640625 -12.546875 C 5.378906 -13.515625 6.539062 -14.015625 8.125 -14.046875 Z M 10.640625 -4.578125 C 11.328125 -5.273438 11.65625 -6.09375 11.625 -7.03125 C 11.625 -8 11.285156 -8.820312 10.609375 -9.5 C 9.921875 -10.144531 9.101562 -10.46875 8.15625 -10.46875 C 7.195312 -10.46875 6.378906 -10.132812 5.703125 -9.46875 C 5.023438 -8.757812 4.6875 -7.941406 4.6875 -7.015625 C 4.726562 -6.023438 5.078125 -5.207031 5.734375 -4.5625 C 6.398438 -3.882812 7.21875 -3.546875 8.1875 -3.546875 C 9.164062 -3.578125 9.984375 -3.921875 10.640625 -4.578125 Z M 10.640625 -4.578125 "/></g></g></g><g fill="#ff751f" fill-opacity="1"><g transform="translate(96.453406, 105.905435)"><g><path d="M 7.28125 -14.046875 C 9.226562 -14.066406 10.882812 -13.394531 12.25 -12.03125 C 13.632812 -10.644531 14.328125 -8.988281 14.328125 -7.0625 C 14.335938 -5.113281 13.660156 -3.457031 12.296875 -2.09375 C 10.929688 -0.71875 9.285156 -0.0195312 7.359375 0 C 5.421875 0.0195312 3.757812 -0.648438 2.375 -2.015625 C 0.988281 -3.378906 0.296875 -5.035156 0.296875 -6.984375 C 0.273438 -8.929688 0.945312 -10.585938 2.3125 -11.953125 C 3.675781 -13.328125 5.332031 -14.023438 7.28125 -14.046875 Z M 9.765625 -4.578125 C 10.441406 -5.253906 10.78125 -6.070312 10.78125 -7.03125 C 10.78125 -7.976562 10.429688 -8.800781 9.734375 -9.5 C 9.046875 -10.144531 8.226562 -10.46875 7.28125 -10.46875 C 6.332031 -10.46875 5.523438 -10.132812 4.859375 -9.46875 C 4.179688 -8.757812 3.84375 -7.941406 3.84375 -7.015625 C 3.84375 -6.066406 4.191406 -5.25 4.890625 -4.5625 C 5.554688 -3.882812 6.375 -3.546875 7.34375 -3.546875 C 8.320312 -3.578125 9.128906 -3.921875 9.765625 -4.578125 Z M 9.765625 -4.578125 "/></g></g></g><g fill="#ff751f" fill-opacity="1"><g transform="translate(120.62079, 105.905435)"><g><path d="M 20.375 -14.234375 L 12.734375 0 L 12.71875 -0.03125 L 10.25 -4.609375 L 7.78125 0 L 7.78125 -0.03125 L 0.140625 -14.234375 L 4.0625 -14.234375 L 7.78125 -7.125 L 8.328125 -8.1875 L 5.078125 -14.234375 L 9 -14.234375 L 12.734375 -7.125 L 16.453125 -14.234375 Z M 20.375 -14.234375 "/></g></g></g><g fill="#ff751f" fill-opacity="1"><g transform="translate(150.843348, 105.905435)"><g><path d="M 14.34375 -6.40625 C 14.363281 -6.03125 14.363281 -5.804688 14.34375 -5.734375 L 4.09375 -5.75 C 4.238281 -5.332031 4.503906 -4.9375 4.890625 -4.5625 C 5.597656 -3.882812 6.414062 -3.546875 7.34375 -3.546875 C 8.320312 -3.578125 9.140625 -3.921875 9.796875 -4.578125 L 9.90625 -4.6875 L 13.453125 -3.578125 C 12.671875 -2.359375 11.851562 -1.484375 11 -0.953125 C 10.03125 -0.335938 8.816406 -0.0195312 7.359375 0 C 5.429688 0.0195312 3.78125 -0.648438 2.40625 -2.015625 C 1.019531 -3.378906 0.316406 -5.035156 0.296875 -6.984375 C 0.273438 -8.910156 0.945312 -10.566406 2.3125 -11.953125 C 3.675781 -13.328125 5.332031 -14.023438 7.28125 -14.046875 C 9.207031 -14.066406 10.863281 -13.394531 12.25 -12.03125 C 13.632812 -10.664062 14.332031 -9.007812 14.34375 -7.0625 Z M 7.3125 -10.46875 C 6.34375 -10.46875 5.523438 -10.132812 4.859375 -9.46875 C 4.515625 -9.082031 4.269531 -8.703125 4.125 -8.328125 L 10.53125 -8.328125 C 10.382812 -8.703125 10.128906 -9.09375 9.765625 -9.5 C 9.078125 -10.144531 8.257812 -10.46875 7.3125 -10.46875 Z M 7.3125 -10.46875 "/></g></g></g><g fill="#ff751f" fill-opacity="1"><g transform="translate(177.274696, 105.905435)"><g><path d="M 4.640625 -11.953125 C 4.953125 -12.828125 5.46875 -13.4375 6.1875 -13.78125 C 6.894531 -14.125 7.960938 -14.296875 9.390625 -14.296875 L 9.390625 -10.390625 C 8.003906 -10.390625 6.847656 -9.914062 5.921875 -8.96875 C 5.066406 -8.132812 4.640625 -7.21875 4.640625 -6.21875 L 4.640625 0 L 0.8125 0 L 0.8125 -14.046875 L 4.640625 -14.046875 Z M 4.640625 -11.953125 "/></g></g></g><g fill="#ff751f" fill-opacity="1"><g transform="translate(198.19635, 105.905435)"><g><path d="M 14.34375 -6.40625 C 14.363281 -6.03125 14.363281 -5.804688 14.34375 -5.734375 L 4.09375 -5.75 C 4.238281 -5.332031 4.503906 -4.9375 4.890625 -4.5625 C 5.597656 -3.882812 6.414062 -3.546875 7.34375 -3.546875 C 8.320312 -3.578125 9.140625 -3.921875 9.796875 -4.578125 L 9.90625 -4.6875 L 13.453125 -3.578125 C 12.671875 -2.359375 11.851562 -1.484375 11 -0.953125 C 10.03125 -0.335938 8.816406 -0.0195312 7.359375 0 C 5.429688 0.0195312 3.78125 -0.648438 2.40625 -2.015625 C 1.019531 -3.378906 0.316406 -5.035156 0.296875 -6.984375 C 0.273438 -8.910156 0.945312 -10.566406 2.3125 -11.953125 C 3.675781 -13.328125 5.332031 -14.023438 7.28125 -14.046875 C 9.207031 -14.066406 10.863281 -13.394531 12.25 -12.03125 C 13.632812 -10.664062 14.332031 -9.007812 14.34375 -7.0625 Z M 7.3125 -10.46875 C 6.34375 -10.46875 5.523438 -10.132812 4.859375 -9.46875 C 4.515625 -9.082031 4.269531 -8.703125 4.125 -8.328125 L 10.53125 -8.328125 C 10.382812 -8.703125 10.128906 -9.09375 9.765625 -9.5 C 9.078125 -10.144531 8.257812 -10.46875 7.3125 -10.46875 Z M 7.3125 -10.46875 "/></g></g></g><g fill="#ff751f" fill-opacity="1"><g transform="translate(224.92773, 105.905435)"><g><path d="M 11.8125 0 L 11.8125 -1.609375 C 10.5 -0.535156 9.015625 0 7.359375 0 C 5.429688 0.0195312 3.78125 -0.648438 2.40625 -2.015625 C 1.019531 -3.378906 0.316406 -5.035156 0.296875 -6.984375 C 0.273438 -8.910156 0.945312 -10.566406 2.3125 -11.953125 C 3.675781 -13.328125 5.332031 -14.023438 7.28125 -14.046875 C 8.976562 -14.046875 10.476562 -13.507812 11.78125 -12.4375 L 11.78125 -19.046875 L 15.609375 -19.046875 L 15.625 0 Z M 9.796875 -4.578125 C 10.460938 -5.253906 10.796875 -6.070312 10.796875 -7.03125 C 10.765625 -8.019531 10.421875 -8.84375 9.765625 -9.5 C 9.078125 -10.144531 8.257812 -10.46875 7.3125 -10.46875 C 6.34375 -10.46875 5.523438 -10.132812 4.859375 -9.46875 C 4.179688 -8.71875 3.851562 -7.898438 3.875 -7.015625 C 3.875 -6.046875 4.210938 -5.226562 4.890625 -4.5625 C 5.554688 -3.882812 6.375 -3.546875 7.34375 -3.546875 C 8.320312 -3.578125 9.140625 -3.921875 9.796875 -4.578125 Z M 9.796875 -4.578125 "/></g></g></g><g fill="#ff751f" fill-opacity="1"><g transform="translate(253.159271, 105.905435)"><g/></g></g><g fill="#ff751f" fill-opacity="1"><g transform="translate(272.035303, 105.905435)"><g><path d="M 7.28125 -14.046875 C 9.226562 -14.066406 10.882812 -13.394531 12.25 -12.03125 C 13.632812 -10.644531 14.328125 -8.988281 14.328125 -7.0625 C 14.335938 -5.113281 13.660156 -3.457031 12.296875 -2.09375 C 10.929688 -0.71875 9.285156 -0.0195312 7.359375 0 C 5.421875 0.0195312 3.757812 -0.648438 2.375 -2.015625 C 0.988281 -3.378906 0.296875 -5.035156 0.296875 -6.984375 C 0.273438 -8.929688 0.945312 -10.585938 2.3125 -11.953125 C 3.675781 -13.328125 5.332031 -14.023438 7.28125 -14.046875 Z M 9.765625 -4.578125 C 10.441406 -5.253906 10.78125 -6.070312 10.78125 -7.03125 C 10.78125 -7.976562 10.429688 -8.800781 9.734375 -9.5 C 9.046875 -10.144531 8.226562 -10.46875 7.28125 -10.46875 C 6.332031 -10.46875 5.523438 -10.132812 4.859375 -9.46875 C 4.179688 -8.757812 3.84375 -7.941406 3.84375 -7.015625 C 3.84375 -6.066406 4.191406 -5.25 4.890625 -4.5625 C 5.554688 -3.882812 6.375 -3.546875 7.34375 -3.546875 C 8.320312 -3.578125 9.128906 -3.921875 9.765625 -4.578125 Z M 9.765625 -4.578125 "/></g></g></g><g fill="#ff751f" fill-opacity="1"><g transform="translate(298.439363, 105.905435)"><g><path d="M 7.796875 -14 C 9.796875 -14.15625 11.453125 -13.632812 12.765625 -12.4375 C 14.171875 -11.144531 14.875 -9.335938 14.875 -7.015625 L 14.875 0 L 11.328125 0 L 11.328125 -6.921875 L 11.296875 -6.921875 L 11.296875 -6.984375 C 11.296875 -7.953125 10.957031 -8.769531 10.28125 -9.4375 C 9.613281 -10.113281 8.796875 -10.453125 7.828125 -10.453125 C 6.847656 -10.410156 6.03125 -10.0625 5.375 -9.40625 C 4.6875 -8.71875 4.359375 -7.898438 4.390625 -6.953125 L 4.390625 -6.921875 L 4.359375 -6.921875 L 4.359375 0 L 0.546875 0 L 0.546875 -14.109375 L 4.359375 -14.109375 L 4.359375 -12.28125 C 5.210938 -13.289062 6.359375 -13.863281 7.796875 -14 Z M 7.796875 -14 "/></g></g></g><g fill="#ff751f" fill-opacity="1"><g transform="translate(325.634412, 105.905435)"><g><path d="M 4.640625 -18.953125 L 4.640625 0 L 0.8125 0 L 0.8125 -18.953125 Z M 4.640625 -18.953125 "/></g></g></g><g fill="#ff751f" fill-opacity="1"><g transform="translate(342.873907, 105.905435)"><g><path d="M 4.609375 -19.015625 L 4.609375 -15.796875 L 0.8125 -15.796875 L 0.8125 -19.015625 Z M 4.640625 -14.015625 L 4.640625 0 L 0.8125 0 L 0.8125 -14.015625 Z M 4.640625 -14.015625 "/></g></g></g><g fill="#ff751f" fill-opacity="1"><g transform="translate(360.113402, 105.905435)"><g><path d="M 7.796875 -14 C 9.796875 -14.15625 11.453125 -13.632812 12.765625 -12.4375 C 14.171875 -11.144531 14.875 -9.335938 14.875 -7.015625 L 14.875 0 L 11.328125 0 L 11.328125 -6.921875 L 11.296875 -6.921875 L 11.296875 -6.984375 C 11.296875 -7.953125 10.957031 -8.769531 10.28125 -9.4375 C 9.613281 -10.113281 8.796875 -10.453125 7.828125 -10.453125 C 6.847656 -10.410156 6.03125 -10.0625 5.375 -9.40625 C 4.6875 -8.71875 4.359375 -7.898438 4.390625 -6.953125 L 4.390625 -6.921875 L 4.359375 -6.921875 L 4.359375 0 L 0.546875 0 L 0.546875 -14.109375 L 4.359375 -14.109375 L 4.359375 -12.28125 C 5.210938 -13.289062 6.359375 -13.863281 7.796875 -14 Z M 7.796875 -14 "/></g></g></g><g fill="#ff751f" fill-opacity="1"><g transform="translate(387.308433, 105.905435)"><g><path d="M 14.34375 -6.40625 C 14.363281 -6.03125 14.363281 -5.804688 14.34375 -5.734375 L 4.09375 -5.75 C 4.238281 -5.332031 4.503906 -4.9375 4.890625 -4.5625 C 5.597656 -3.882812 6.414062 -3.546875 7.34375 -3.546875 C 8.320312 -3.578125 9.140625 -3.921875 9.796875 -4.578125 L 9.90625 -4.6875 L 13.453125 -3.578125 C 12.671875 -2.359375 11.851562 -1.484375 11 -0.953125 C 10.03125 -0.335938 8.816406 -0.0195312 7.359375 0 C 5.429688 0.0195312 3.78125 -0.648438 2.40625 -2.015625 C 1.019531 -3.378906 0.316406 -5.035156 0.296875 -6.984375 C 0.273438 -8.910156 0.945312 -10.566406 2.3125 -11.953125 C 3.675781 -13.328125 5.332031 -14.023438 7.28125 -14.046875 C 9.207031 -14.066406 10.863281 -13.394531 12.25 -12.03125 C 13.632812 -10.664062 14.332031 -9.007812 14.34375 -7.0625 Z M 7.3125 -10.46875 C 6.34375 -10.46875 5.523438 -10.132812 4.859375 -9.46875 C 4.515625 -9.082031 4.269531 -8.703125 4.125 -8.328125 L 10.53125 -8.328125 C 10.382812 -8.703125 10.128906 -9.09375 9.765625 -9.5 C 9.078125 -10.144531 8.257812 -10.46875 7.3125 -10.46875 Z M 7.3125 -10.46875 "/></g></g></g><g fill="#ff751f" fill-opacity="1"><g transform="translate(413.739799, 105.905435)"><g/></g></g><g fill="#ff751f" fill-opacity="1"><g transform="translate(432.615831, 105.905435)"><g><path d="M 15.140625 0 L 11.59375 0 L 11.59375 -6.921875 L 11.5625 -6.921875 L 11.5625 -7.015625 C 11.5625 -7.960938 11.226562 -8.769531 10.5625 -9.4375 C 9.882812 -10.113281 9.066406 -10.453125 8.109375 -10.453125 C 7.160156 -10.453125 6.335938 -10.101562 5.640625 -9.40625 C 4.953125 -8.71875 4.628906 -7.898438 4.671875 -6.953125 L 4.671875 -6.921875 L 4.640625 -6.921875 L 4.640625 0 L 0.8125 0 L 0.8125 -17.734375 L 4.640625 -17.734375 L 4.640625 -12.28125 C 5.492188 -13.289062 6.640625 -13.863281 8.078125 -14 C 10.078125 -14.15625 11.734375 -13.632812 13.046875 -12.4375 C 14.441406 -11.144531 15.140625 -9.335938 15.140625 -7.015625 Z M 15.140625 0 "/></g></g></g><g fill="#ff751f" fill-opacity="1"><g transform="translate(460.356406, 105.905435)"><g><path d="M 7.28125 -14.046875 C 9.226562 -14.066406 10.882812 -13.394531 12.25 -12.03125 C 13.632812 -10.644531 14.328125 -8.988281 14.328125 -7.0625 C 14.335938 -5.113281 13.660156 -3.457031 12.296875 -2.09375 C 10.929688 -0.71875 9.285156 -0.0195312 7.359375 0 C 5.421875 0.0195312 3.757812 -0.648438 2.375 -2.015625 C 0.988281 -3.378906 0.296875 -5.035156 0.296875 -6.984375 C 0.273438 -8.929688 0.945312 -10.585938 2.3125 -11.953125 C 3.675781 -13.328125 5.332031 -14.023438 7.28125 -14.046875 Z M 9.765625 -4.578125 C 10.441406 -5.253906 10.78125 -6.070312 10.78125 -7.03125 C 10.78125 -7.976562 10.429688 -8.800781 9.734375 -9.5 C 9.046875 -10.144531 8.226562 -10.46875 7.28125 -10.46875 C 6.332031 -10.46875 5.523438 -10.132812 4.859375 -9.46875 C 4.179688 -8.757812 3.84375 -7.941406 3.84375 -7.015625 C 3.84375 -6.066406 4.191406 -5.25 4.890625 -4.5625 C 5.554688 -3.882812 6.375 -3.546875 7.34375 -3.546875 C 8.320312 -3.578125 9.128906 -3.921875 9.765625 -4.578125 Z M 9.765625 -4.578125 "/></g></g></g><g fill="#ff751f" fill-opacity="1"><g transform="translate(486.760484, 105.905435)"><g><path d="M 18 -14.078125 C 19.894531 -14.097656 21.429688 -13.535156 22.609375 -12.390625 C 23.890625 -11.179688 24.53125 -9.5 24.53125 -7.34375 L 24.53125 0 L 20.984375 0 L 20.984375 -7.09375 C 20.984375 -7.363281 20.9375 -7.671875 20.84375 -8.015625 C 20.71875 -8.429688 20.546875 -8.804688 20.328125 -9.140625 C 19.742188 -10.066406 18.890625 -10.53125 17.765625 -10.53125 C 16.554688 -10.53125 15.679688 -10.066406 15.140625 -9.140625 C 14.941406 -8.796875 14.796875 -8.40625 14.703125 -7.96875 C 14.628906 -7.65625 14.59375 -7.34375 14.59375 -7.03125 L 14.59375 0 L 11.015625 0 L 11.015625 -7.09375 C 11.015625 -7.363281 10.972656 -7.671875 10.890625 -8.015625 C 10.773438 -8.429688 10.609375 -8.804688 10.390625 -9.140625 C 9.796875 -10.066406 8.941406 -10.53125 7.828125 -10.53125 C 6.609375 -10.53125 5.726562 -10.066406 5.1875 -9.140625 C 4.988281 -8.796875 4.84375 -8.40625 4.75 -7.96875 C 4.675781 -7.65625 4.640625 -7.34375 4.640625 -7.03125 L 4.640625 0 L 0.8125 0 L 0.8125 -14.109375 L 4.640625 -14.109375 L 4.640625 -12.625 C 5.523438 -13.59375 6.671875 -14.078125 8.078125 -14.078125 C 10.128906 -14.109375 11.789062 -13.316406 13.0625 -11.703125 L 14.21875 -12.765625 C 15.289062 -13.640625 16.550781 -14.078125 18 -14.078125 Z M 18 -14.078125 "/></g></g></g><g fill="#ff751f" fill-opacity="1"><g transform="translate(523.883819, 105.905435)"><g><path d="M 14.34375 -6.40625 C 14.363281 -6.03125 14.363281 -5.804688 14.34375 -5.734375 L 4.09375 -5.75 C 4.238281 -5.332031 4.503906 -4.9375 4.890625 -4.5625 C 5.597656 -3.882812 6.414062 -3.546875 7.34375 -3.546875 C 8.320312 -3.578125 9.140625 -3.921875 9.796875 -4.578125 L 9.90625 -4.6875 L 13.453125 -3.578125 C 12.671875 -2.359375 11.851562 -1.484375 11 -0.953125 C 10.03125 -0.335938 8.816406 -0.0195312 7.359375 0 C 5.429688 0.0195312 3.78125 -0.648438 2.40625 -2.015625 C 1.019531 -3.378906 0.316406 -5.035156 0.296875 -6.984375 C 0.273438 -8.910156 0.945312 -10.566406 2.3125 -11.953125 C 3.675781 -13.328125 5.332031 -14.023438 7.28125 -14.046875 C 9.207031 -14.066406 10.863281 -13.394531 12.25 -12.03125 C 13.632812 -10.664062 14.332031 -9.007812 14.34375 -7.0625 Z M 7.3125 -10.46875 C 6.34375 -10.46875 5.523438 -10.132812 4.859375 -9.46875 C 4.515625 -9.082031 4.269531 -8.703125 4.125 -8.328125 L 10.53125 -8.328125 C 10.382812 -8.703125 10.128906 -9.09375 9.765625 -9.5 C 9.078125 -10.144531 8.257812 -10.46875 7.3125 -10.46875 Z M 7.3125 -10.46875 "/></g></g></g><g fill="#ff751f" fill-opacity="1"><g transform="translate(550.315185, 105.905435)"><g/></g></g><g fill="#ff751f" fill-opacity="1"><g transform="translate(569.19118, 105.905435)"><g><path d="M 6.5 0 C 5.550781 0 4.722656 -0.144531 4.015625 -0.4375 C 3.453125 -0.632812 2.867188 -1.007812 2.265625 -1.5625 C 1.222656 -2.519531 0.75 -3.734375 0.84375 -5.203125 L 0.84375 -5.515625 L 3.90625 -5.453125 L 4.140625 -5.453125 L 4.140625 -5.234375 C 4.160156 -4.785156 4.265625 -4.414062 4.453125 -4.125 C 4.753906 -3.59375 5.4375 -3.328125 6.5 -3.328125 C 7.363281 -3.328125 7.988281 -3.425781 8.375 -3.625 C 8.570312 -3.71875 8.707031 -3.835938 8.78125 -3.984375 C 8.820312 -4.035156 8.84375 -4.085938 8.84375 -4.140625 L 8.859375 -4.28125 C 8.859375 -4.664062 8.5625 -4.972656 7.96875 -5.203125 C 7.726562 -5.296875 7.453125 -5.367188 7.140625 -5.421875 C 6.910156 -5.484375 6.648438 -5.53125 6.359375 -5.5625 C 5.265625 -5.675781 4.351562 -5.894531 3.625 -6.21875 C 2.894531 -6.507812 2.296875 -6.910156 1.828125 -7.421875 C 1.171875 -8.160156 0.84375 -9.015625 0.84375 -9.984375 C 0.84375 -10.585938 0.953125 -11.144531 1.171875 -11.65625 C 1.335938 -12.050781 1.554688 -12.40625 1.828125 -12.71875 C 2.804688 -13.84375 4.378906 -14.40625 6.546875 -14.40625 C 7.835938 -14.40625 8.929688 -14.148438 9.828125 -13.640625 C 10.515625 -13.253906 11.066406 -12.734375 11.484375 -12.078125 C 11.804688 -11.585938 12.035156 -11.015625 12.171875 -10.359375 C 12.203125 -10.148438 12.226562 -9.941406 12.25 -9.734375 L 12.25 -9.171875 L 8.953125 -9.171875 L 8.953125 -9.578125 C 8.929688 -9.648438 8.921875 -9.722656 8.921875 -9.796875 C 8.867188 -9.992188 8.796875 -10.15625 8.703125 -10.28125 C 8.304688 -10.832031 7.585938 -11.109375 6.546875 -11.109375 C 5.015625 -11.109375 4.25 -10.789062 4.25 -10.15625 C 4.25 -9.820312 4.429688 -9.554688 4.796875 -9.359375 C 5.179688 -9.117188 5.828125 -8.945312 6.734375 -8.84375 C 8.828125 -8.625 10.347656 -7.957031 11.296875 -6.84375 C 11.929688 -6.101562 12.25 -5.25 12.25 -4.28125 L 12.25 -4.09375 L 12.21875 -3.84375 C 12.21875 -3.601562 12.191406 -3.382812 12.140625 -3.1875 C 11.992188 -2.601562 11.722656 -2.085938 11.328125 -1.640625 C 10.867188 -1.085938 10.226562 -0.675781 9.40625 -0.40625 C 8.59375 -0.132812 7.625 0 6.5 0 Z M 6.5 0 "/></g></g></g><g fill="#ff751f" fill-opacity="1"><g transform="translate(594.040568, 105.905435)"><g><path d="M 12.0625 -1.6875 C 10.726562 -0.5625 9.179688 0 7.421875 0 C 5.472656 -0.0195312 3.816406 -0.71875 2.453125 -2.09375 C 1.085938 -3.476562 0.414062 -5.132812 0.4375 -7.0625 C 0.457031 -9.007812 1.15625 -10.664062 2.53125 -12.03125 C 3.914062 -13.394531 5.570312 -14.066406 7.5 -14.046875 C 9.25 -14.023438 10.773438 -13.441406 12.078125 -12.296875 L 9.546875 -9.796875 C 8.929688 -10.242188 8.238281 -10.46875 7.46875 -10.46875 C 6.53125 -10.46875 5.710938 -10.144531 5.015625 -9.5 C 4.347656 -8.820312 4.015625 -8 4.015625 -7.03125 C 3.972656 -6.09375 4.300781 -5.273438 5 -4.578125 C 5.644531 -3.921875 6.460938 -3.578125 7.453125 -3.546875 C 8.210938 -3.546875 8.898438 -3.773438 9.515625 -4.234375 Z M 12.0625 -1.6875 "/></g></g></g><g fill="#ff751f" fill-opacity="1"><g transform="translate(618.317123, 105.905435)"><g><path d="M 15.140625 0 L 11.59375 0 L 11.59375 -6.921875 L 11.5625 -6.921875 L 11.5625 -7.015625 C 11.5625 -7.960938 11.226562 -8.769531 10.5625 -9.4375 C 9.882812 -10.113281 9.066406 -10.453125 8.109375 -10.453125 C 7.160156 -10.453125 6.335938 -10.101562 5.640625 -9.40625 C 4.953125 -8.71875 4.628906 -7.898438 4.671875 -6.953125 L 4.671875 -6.921875 L 4.640625 -6.921875 L 4.640625 0 L 0.8125 0 L 0.8125 -17.734375 L 4.640625 -17.734375 L 4.640625 -12.28125 C 5.492188 -13.289062 6.640625 -13.863281 8.078125 -14 C 10.078125 -14.15625 11.734375 -13.632812 13.046875 -12.4375 C 14.441406 -11.144531 15.140625 -9.335938 15.140625 -7.015625 Z M 15.140625 0 "/></g></g></g><g fill="#ff751f" fill-opacity="1"><g transform="translate(646.057697, 105.905435)"><g><path d="M 7.28125 -14.046875 C 9.226562 -14.066406 10.882812 -13.394531 12.25 -12.03125 C 13.632812 -10.644531 14.328125 -8.988281 14.328125 -7.0625 C 14.335938 -5.113281 13.660156 -3.457031 12.296875 -2.09375 C 10.929688 -0.71875 9.285156 -0.0195312 7.359375 0 C 5.421875 0.0195312 3.757812 -0.648438 2.375 -2.015625 C 0.988281 -3.378906 0.296875 -5.035156 0.296875 -6.984375 C 0.273438 -8.929688 0.945312 -10.585938 2.3125 -11.953125 C 3.675781 -13.328125 5.332031 -14.023438 7.28125 -14.046875 Z M 9.765625 -4.578125 C 10.441406 -5.253906 10.78125 -6.070312 10.78125 -7.03125 C 10.78125 -7.976562 10.429688 -8.800781 9.734375 -9.5 C 9.046875 -10.144531 8.226562 -10.46875 7.28125 -10.46875 C 6.332031 -10.46875 5.523438 -10.132812 4.859375 -9.46875 C 4.179688 -8.757812 3.84375 -7.941406 3.84375 -7.015625 C 3.84375 -6.066406 4.191406 -5.25 4.890625 -4.5625 C 5.554688 -3.882812 6.375 -3.546875 7.34375 -3.546875 C 8.320312 -3.578125 9.128906 -3.921875 9.765625 -4.578125 Z M 9.765625 -4.578125 "/></g></g></g><g fill="#ff751f" fill-opacity="1"><g transform="translate(672.625431, 105.905435)"><g><path d="M 7.28125 -14.046875 C 9.226562 -14.066406 10.882812 -13.394531 12.25 -12.03125 C 13.632812 -10.644531 14.328125 -8.988281 14.328125 -7.0625 C 14.335938 -5.113281 13.660156 -3.457031 12.296875 -2.09375 C 10.929688 -0.71875 9.285156 -0.0195312 7.359375 0 C 5.421875 0.0195312 3.757812 -0.648438 2.375 -2.015625 C 0.988281 -3.378906 0.296875 -5.035156 0.296875 -6.984375 C 0.273438 -8.929688 0.945312 -10.585938 2.3125 -11.953125 C 3.675781 -13.328125 5.332031 -14.023438 7.28125 -14.046875 Z M 9.765625 -4.578125 C 10.441406 -5.253906 10.78125 -6.070312 10.78125 -7.03125 C 10.78125 -7.976562 10.429688 -8.800781 9.734375 -9.5 C 9.046875 -10.144531 8.226562 -10.46875 7.28125 -10.46875 C 6.332031 -10.46875 5.523438 -10.132812 4.859375 -9.46875 C 4.179688 -8.757812 3.84375 -7.941406 3.84375 -7.015625 C 3.84375 -6.066406 4.191406 -5.25 4.890625 -4.5625 C 5.554688 -3.882812 6.375 -3.546875 7.34375 -3.546875 C 8.320312 -3.578125 9.128906 -3.921875 9.765625 -4.578125 Z M 9.765625 -4.578125 "/></g></g></g><g fill="#ff751f" fill-opacity="1"><g transform="translate(699.029472, 105.905435)"><g><path d="M 4.640625 -18.953125 L 4.640625 0 L 0.8125 0 L 0.8125 -18.953125 Z M 4.640625 -18.953125 "/></g></g></g></g></g><g clip-path="url(#331da20199)"><path fill="#3dc3ff" d="M 27.171875 93.125 C 24.296875 88.835938 22.671875 83.167969 22.671875 75.726562 C 22.671875 56.503906 33.515625 40.132812 48.703125 33.910156 C 52.234375 30.484375 60.175781 23.230469 63.144531 24.308594 C 65.589844 25.195312 63.53125 29.3125 63.53125 29.3125 C 63.53125 29.3125 73.355469 23.78125 74.683594 26.941406 C 75.679688 29.324219 73.59375 31.703125 72.507812 32.734375 C 89.414062 37.804688 101.871094 55.128906 101.871094 75.726562 C 101.871094 83.164062 100.242188 88.835938 97.367188 93.125 C 100.878906 95.503906 104.078125 98.226562 106.894531 101.246094 C 113.621094 92.082031 117.59375 80.777344 117.59375 68.539062 C 117.59375 37.988281 92.824219 13.214844 62.269531 13.214844 C 31.71875 13.214844 6.945312 37.988281 6.945312 68.539062 C 6.945312 80.777344 10.921875 92.082031 17.644531 101.242188 C 20.460938 98.222656 23.664062 95.503906 27.171875 93.125 Z M 27.171875 93.125 " fill-opacity="1" fill-rule="nonzero"/></g><path fill="#000000" d="M 97.367188 93.125 C 100.242188 88.835938 101.871094 83.167969 101.871094 75.726562 C 101.871094 55.128906 89.414062 37.804688 72.507812 32.734375 C 73.59375 31.703125 75.679688 29.324219 74.683594 26.941406 C 73.359375 23.78125 63.53125 29.3125 63.53125 29.3125 C 63.53125 29.3125 65.589844 25.195312 63.144531 24.308594 C 60.175781 23.230469 52.234375 30.484375 48.703125 33.910156 C 33.515625 40.132812 22.671875 56.507812 22.671875 75.726562 C 22.671875 83.167969 24.296875 88.835938 27.171875 93.125 C 23.664062 95.503906 20.460938 98.222656 17.644531 101.242188 C 20.019531 104.480469 22.738281 107.449219 25.746094 110.097656 C 26.296875 110.578125 26.855469 111.046875 27.421875 111.507812 C 29.804688 107.472656 32.722656 103.890625 36.050781 100.855469 C 37.726562 101.71875 39.523438 102.441406 41.433594 103.039062 C 35.105469 98.984375 29.964844 91.347656 29.964844 76.949219 C 29.964844 62.6875 37.578125 51.128906 46.96875 51.128906 C 53.648438 51.128906 61.539062 59.546875 62.671875 72.621094 C 62.761719 72.59375 62.816406 72.574219 62.816406 72.574219 C 62.816406 72.574219 62.867188 72.59375 62.957031 72.621094 C 64.089844 59.542969 71.980469 51.128906 78.660156 51.128906 C 88.050781 51.128906 95.664062 62.6875 95.664062 76.949219 C 95.664062 90.476562 91.183594 98.035156 85.339844 102.261719 C 86.433594 101.839844 87.488281 101.371094 88.496094 100.851562 C 91.820312 103.886719 94.738281 107.472656 97.121094 111.507812 C 98.265625 110.578125 99.375 109.605469 100.441406 108.589844 C 102.800781 106.339844 104.96875 103.882812 106.898438 101.246094 C 104.082031 98.226562 100.878906 95.503906 97.367188 93.125 Z M 97.367188 93.125 " fill-opacity="1" fill-rule="nonzero"/><path fill="#ffffff" d="M 88.496094 100.851562 C 87.484375 101.371094 86.433594 101.839844 85.339844 102.261719 C 91.183594 98.035156 95.664062 90.476562 95.664062 76.949219 C 95.664062 62.6875 88.050781 51.128906 78.660156 51.128906 C 71.980469 51.128906 64.089844 59.542969 62.957031 72.621094 C 62.867188 72.589844 62.816406 72.574219 62.816406 72.574219 C 62.816406 72.574219 62.761719 72.589844 62.671875 72.621094 C 61.539062 59.542969 53.648438 51.128906 46.96875 51.128906 C 37.578125 51.128906 29.964844 62.6875 29.964844 76.949219 C 29.964844 91.347656 35.105469 98.984375 41.433594 103.039062 C 39.523438 102.441406 37.722656 101.71875 36.050781 100.855469 C 32.726562 103.886719 29.804688 107.472656 27.421875 111.507812 C 36.9375 119.234375 49.058594 123.863281 62.269531 123.863281 C 75.484375 123.863281 87.605469 119.230469 97.117188 111.507812 C 94.738281 107.46875 91.820312 103.886719 88.496094 100.851562 Z M 88.496094 100.851562 " fill-opacity="1" fill-rule="nonzero"/><path fill="#000000" d="M 71.960938 69.660156 C 71.960938 72.65625 74.359375 75.082031 77.320312 75.082031 C 80.28125 75.082031 82.679688 72.65625 82.679688 69.660156 C 82.679688 66.664062 80.28125 64.234375 77.320312 64.234375 C 76.632812 64.234375 75.980469 64.367188 75.375 64.601562 C 75.972656 65 76.367188 65.6875 76.367188 66.464844 C 76.367188 67.695312 75.378906 68.695312 74.164062 68.695312 C 73.394531 68.695312 72.71875 68.296875 72.324219 67.691406 C 72.089844 68.300781 71.960938 68.964844 71.960938 69.660156 Z M 71.960938 69.660156 " fill-opacity="1" fill-rule="nonzero"/><path fill="#000000" d="M 42.925781 69.660156 C 42.925781 72.65625 45.324219 75.082031 48.28125 75.082031 C 51.242188 75.082031 53.640625 72.65625 53.640625 69.660156 C 53.640625 66.664062 51.242188 64.234375 48.28125 64.234375 C 47.597656 64.234375 46.941406 64.367188 46.339844 64.601562 C 46.933594 65 47.328125 65.6875 47.328125 66.464844 C 47.328125 67.695312 46.34375 68.695312 45.125 68.695312 C 44.355469 68.695312 43.679688 68.296875 43.289062 67.691406 C 43.054688 68.300781 42.925781 68.964844 42.925781 69.660156 Z M 42.925781 69.660156 " fill-opacity="1" fill-rule="nonzero"/><path fill="#fcee21" d="M 72.566406 79.101562 C 72.566406 82.703125 68.199219 85.625 62.816406 85.625 C 57.429688 85.625 53.0625 82.703125 53.0625 79.101562 C 53.0625 75.496094 62.816406 72.574219 62.816406 72.574219 C 62.816406 72.574219 72.566406 75.496094 72.566406 79.101562 Z M 72.566406 79.101562 " fill-opacity="1" fill-rule="nonzero"/><path fill="#000000" d="M 72.316406 80.355469 C 71.042969 82.511719 67.648438 83.332031 67.011719 83.484375 C 65.738281 83.789062 64.3125 83.957031 62.816406 83.957031 C 61.316406 83.957031 59.894531 83.789062 58.621094 83.484375 C 57.332031 83.175781 54.453125 82.285156 53.3125 80.355469 C 56.417969 81.007812 62.816406 81.335938 62.816406 81.335938 C 62.816406 81.335938 69.210938 81.007812 72.316406 80.355469 Z M 72.316406 80.355469 " fill-opacity="1" fill-rule="nonzero"/><path fill="#ff6ca1" d="M 67.011719 83.484375 C 65.738281 83.789062 64.3125 83.957031 62.816406 83.957031 C 61.316406 83.957031 59.894531 83.789062 58.621094 83.484375 C 59.355469 82.652344 60.957031 82.078125 62.816406 82.078125 C 64.671875 82.078125 66.273438 82.652344 67.011719 83.484375 Z M 67.011719 83.484375 " fill-opacity="1" fill-rule="nonzero"/><path fill="#ff6ca1" d="M 89.367188 80.355469 C 89.367188 80.582031 89.335938 80.800781 89.273438 81.023438 C 89.207031 81.242188 89.113281 81.453125 88.988281 81.660156 C 88.863281 81.867188 88.707031 82.0625 88.527344 82.25 C 88.34375 82.433594 88.136719 82.609375 87.90625 82.765625 C 87.675781 82.921875 87.421875 83.066406 87.148438 83.1875 C 86.878906 83.3125 86.589844 83.417969 86.285156 83.503906 C 85.984375 83.589844 85.671875 83.652344 85.351562 83.699219 C 85.027344 83.742188 84.703125 83.761719 84.378906 83.761719 C 84.050781 83.761719 83.726562 83.742188 83.402344 83.699219 C 83.082031 83.652344 82.769531 83.589844 82.46875 83.503906 C 82.164062 83.417969 81.875 83.3125 81.605469 83.1875 C 81.332031 83.066406 81.078125 82.921875 80.847656 82.765625 C 80.617188 82.609375 80.410156 82.433594 80.226562 82.25 C 80.046875 82.0625 79.890625 81.867188 79.765625 81.660156 C 79.640625 81.453125 79.546875 81.242188 79.480469 81.023438 C 79.417969 80.800781 79.386719 80.582031 79.386719 80.355469 C 79.386719 80.132812 79.417969 79.910156 79.480469 79.691406 C 79.546875 79.472656 79.640625 79.261719 79.765625 79.054688 C 79.890625 78.847656 80.046875 78.652344 80.226562 78.464844 C 80.410156 78.277344 80.617188 78.105469 80.847656 77.949219 C 81.078125 77.789062 81.332031 77.648438 81.605469 77.523438 C 81.875 77.402344 82.164062 77.296875 82.46875 77.210938 C 82.769531 77.125 83.082031 77.058594 83.402344 77.015625 C 83.726562 76.972656 84.050781 76.949219 84.378906 76.949219 C 84.703125 76.949219 85.027344 76.972656 85.351562 77.015625 C 85.671875 77.058594 85.984375 77.125 86.285156 77.210938 C 86.589844 77.296875 86.878906 77.402344 87.148438 77.523438 C 87.421875 77.648438 87.675781 77.789062 87.90625 77.949219 C 88.136719 78.105469 88.34375 78.277344 88.527344 78.464844 C 88.707031 78.652344 88.863281 78.847656 88.988281 79.054688 C 89.113281 79.261719 89.207031 79.472656 89.273438 79.691406 C 89.335938 79.910156 89.367188 80.132812 89.367188 80.355469 Z M 89.367188 80.355469 " fill-opacity="1" fill-rule="nonzero"/><path fill="#ff6ca1" d="M 45.15625 80.355469 C 45.15625 80.582031 45.125 80.800781 45.058594 81.023438 C 44.996094 81.242188 44.902344 81.453125 44.777344 81.660156 C 44.648438 81.867188 44.496094 82.0625 44.3125 82.25 C 44.132812 82.433594 43.925781 82.609375 43.695312 82.765625 C 43.460938 82.921875 43.210938 83.066406 42.9375 83.1875 C 42.664062 83.3125 42.378906 83.417969 42.074219 83.503906 C 41.773438 83.589844 41.460938 83.652344 41.136719 83.699219 C 40.816406 83.742188 40.492188 83.761719 40.164062 83.761719 C 39.835938 83.761719 39.511719 83.742188 39.191406 83.699219 C 38.871094 83.652344 38.558594 83.589844 38.253906 83.503906 C 37.953125 83.417969 37.664062 83.3125 37.390625 83.1875 C 37.121094 83.066406 36.867188 82.921875 36.636719 82.765625 C 36.40625 82.609375 36.199219 82.433594 36.015625 82.25 C 35.832031 82.0625 35.679688 81.867188 35.554688 81.660156 C 35.429688 81.453125 35.335938 81.242188 35.269531 81.023438 C 35.207031 80.800781 35.175781 80.582031 35.175781 80.355469 C 35.175781 80.132812 35.207031 79.910156 35.269531 79.691406 C 35.335938 79.472656 35.429688 79.261719 35.554688 79.054688 C 35.679688 78.847656 35.832031 78.652344 36.015625 78.464844 C 36.199219 78.277344 36.40625 78.105469 36.636719 77.949219 C 36.867188 77.789062 37.121094 77.648438 37.390625 77.523438 C 37.664062 77.402344 37.953125 77.296875 38.253906 77.210938 C 38.558594 77.125 38.871094 77.058594 39.191406 77.015625 C 39.511719 76.972656 39.835938 76.949219 40.164062 76.949219 C 40.492188 76.949219 40.816406 76.972656 41.136719 77.015625 C 41.460938 77.058594 41.773438 77.125 42.074219 77.210938 C 42.378906 77.296875 42.664062 77.402344 42.9375 77.523438 C 43.210938 77.648438 43.460938 77.789062 43.695312 77.949219 C 43.925781 78.105469 44.132812 78.277344 44.3125 78.464844 C 44.496094 78.652344 44.648438 78.847656 44.777344 79.054688 C 44.902344 79.261719 44.996094 79.472656 45.058594 79.691406 C 45.125 79.910156 45.15625 80.132812 45.15625 80.355469 Z M 45.15625 80.355469 " fill-opacity="1" fill-rule="nonzero"/></svg>