<svg xmlns="http://www.w3.org/2000/svg" xmlns:xlink="http://www.w3.org/1999/xlink" width="350" zoomAndPan="magnify" viewBox="0 0 262.5 262.500001" height="350" preserveAspectRatio="xMidYMid meet" version="1.0"><defs><g/><clipPath id="c22830b5b3"><path d="M 4.046875 1.273438 L 262 1.273438 L 262 207 L 4.046875 207 Z M 4.046875 1.273438 " clip-rule="nonzero"/></clipPath><clipPath id="dbca140851"><path d="M 51 89 L 215 89 L 215 259.53125 L 51 259.53125 Z M 51 89 " clip-rule="nonzero"/></clipPath></defs><g clip-path="url(#c22830b5b3)"><path fill="#3dc3ff" d="M 51.199219 187.566406 C 44.496094 177.566406 40.703125 164.347656 40.703125 147 C 40.703125 102.195312 65.984375 64.027344 101.394531 49.519531 C 109.621094 41.527344 128.136719 24.617188 135.054688 27.132812 C 140.757812 29.207031 135.957031 38.800781 135.957031 38.800781 C 135.957031 38.800781 158.867188 25.90625 161.957031 33.273438 C 164.285156 38.824219 159.421875 44.375 156.882812 46.777344 C 196.304688 58.59375 225.34375 98.984375 225.34375 147 C 225.34375 164.347656 221.546875 177.566406 214.84375 187.566406 C 223.027344 193.113281 230.488281 199.457031 237.054688 206.496094 C 252.734375 185.136719 262 158.777344 262 130.25 C 262 59.023438 204.253906 1.273438 133.023438 1.273438 C 61.792969 1.273438 4.046875 59.023438 4.046875 130.25 C 4.046875 158.773438 13.3125 185.128906 28.988281 206.488281 C 35.554688 199.449219 43.019531 193.113281 51.199219 187.566406 Z M 51.199219 187.566406 " fill-opacity="1" fill-rule="nonzero"/></g><path fill="#000000" d="M 214.84375 187.566406 C 221.546875 177.566406 225.34375 164.347656 225.34375 147 C 225.34375 98.984375 196.304688 58.59375 156.882812 46.777344 C 159.421875 44.378906 164.285156 38.828125 161.957031 33.273438 C 158.867188 25.90625 135.957031 38.800781 135.957031 38.800781 C 135.957031 38.800781 140.757812 29.207031 135.058594 27.132812 C 128.136719 24.621094 109.621094 41.53125 101.394531 49.519531 C 65.984375 64.027344 40.703125 102.195312 40.703125 147 C 40.703125 164.347656 44.5 177.566406 51.199219 187.570312 C 43.019531 193.113281 35.550781 199.453125 28.984375 206.488281 C 34.523438 214.042969 40.859375 220.960938 47.875 227.132812 C 49.152344 228.253906 50.457031 229.351562 51.78125 230.421875 C 57.332031 221.015625 64.140625 212.660156 71.894531 205.589844 C 75.796875 207.597656 79.992188 209.285156 84.441406 210.675781 C 69.691406 201.230469 57.710938 183.425781 57.710938 149.851562 C 57.710938 116.609375 75.457031 89.664062 97.351562 89.664062 C 112.925781 89.664062 131.320312 109.28125 133.957031 139.761719 C 134.167969 139.695312 134.292969 139.660156 134.292969 139.660156 C 134.292969 139.660156 134.414062 139.695312 134.625 139.761719 C 137.261719 109.28125 155.65625 89.664062 171.230469 89.664062 C 193.125 89.664062 210.875 116.609375 210.875 149.851562 C 210.875 181.390625 200.429688 199.015625 186.800781 208.867188 C 189.355469 207.886719 191.808594 206.789062 194.15625 205.578125 C 201.90625 212.652344 208.710938 221.011719 214.265625 230.417969 C 216.933594 228.25 219.519531 225.988281 222.007812 223.617188 C 227.507812 218.375 232.558594 212.648438 237.0625 206.5 C 230.496094 199.460938 223.03125 193.113281 214.84375 187.566406 Z M 214.84375 187.566406 " fill-opacity="1" fill-rule="nonzero"/><g clip-path="url(#dbca140851)"><path fill="#ffffff" d="M 194.15625 205.578125 C 191.804688 206.785156 189.355469 207.886719 186.800781 208.863281 C 200.425781 199.011719 210.871094 181.390625 210.871094 149.851562 C 210.871094 116.609375 193.125 89.660156 171.230469 89.660156 C 155.65625 89.660156 137.261719 109.28125 134.625 139.761719 C 134.414062 139.695312 134.289062 139.65625 134.289062 139.65625 C 134.289062 139.65625 134.167969 139.695312 133.957031 139.761719 C 131.320312 109.28125 112.925781 89.660156 97.351562 89.660156 C 75.457031 89.660156 57.710938 116.609375 57.710938 149.851562 C 57.710938 183.421875 69.691406 201.226562 84.441406 210.675781 C 79.992188 209.285156 75.796875 207.597656 71.894531 205.585938 C 64.140625 212.65625 57.335938 221.011719 51.78125 230.417969 C 73.960938 248.4375 102.222656 259.226562 133.023438 259.226562 C 163.824219 259.226562 192.085938 248.425781 214.261719 230.417969 C 208.710938 221.007812 201.90625 212.648438 194.15625 205.574219 Z M 194.15625 205.578125 " fill-opacity="1" fill-rule="nonzero"/></g><path fill="#000000" d="M 155.613281 132.859375 C 155.613281 139.84375 161.207031 145.503906 168.105469 145.503906 C 175.007812 145.503906 180.597656 139.84375 180.597656 132.859375 C 180.597656 125.875 175.007812 120.214844 168.105469 120.214844 C 166.507812 120.214844 164.980469 120.519531 163.574219 121.074219 C 164.964844 122.003906 165.882812 123.601562 165.882812 125.410156 C 165.882812 128.28125 163.582031 130.609375 160.75 130.609375 C 158.953125 130.609375 157.375 129.679688 156.460938 128.269531 C 155.914062 129.691406 155.613281 131.242188 155.613281 132.859375 Z M 155.613281 132.859375 " fill-opacity="1" fill-rule="nonzero"/><path fill="#000000" d="M 87.917969 132.859375 C 87.917969 139.84375 93.511719 145.503906 100.414062 145.503906 C 107.3125 145.503906 112.90625 139.84375 112.90625 132.859375 C 112.90625 125.875 107.3125 120.214844 100.414062 120.214844 C 98.8125 120.214844 97.285156 120.519531 95.878906 121.074219 C 97.269531 122.003906 98.1875 123.601562 98.1875 125.410156 C 98.1875 128.28125 95.886719 130.609375 93.054688 130.609375 C 91.261719 130.609375 89.683594 129.679688 88.765625 128.269531 C 88.21875 129.691406 87.917969 131.242188 87.917969 132.859375 Z M 87.917969 132.859375 " fill-opacity="1" fill-rule="nonzero"/><path fill="#fcee21" d="M 157.023438 154.867188 C 157.023438 163.269531 146.847656 170.078125 134.289062 170.078125 C 121.734375 170.078125 111.558594 163.269531 111.558594 154.867188 C 111.558594 146.46875 134.289062 139.660156 134.289062 139.660156 C 134.289062 139.660156 157.023438 146.46875 157.023438 154.867188 Z M 157.023438 154.867188 " fill-opacity="1" fill-rule="nonzero"/><path fill="#000000" d="M 156.4375 157.800781 C 153.472656 162.820312 145.558594 164.734375 144.074219 165.089844 C 141.101562 165.800781 137.785156 166.195312 134.289062 166.195312 C 130.796875 166.195312 127.480469 165.800781 124.511719 165.089844 C 121.511719 164.371094 114.800781 162.292969 112.140625 157.800781 C 119.378906 159.320312 134.289062 160.078125 134.289062 160.078125 C 134.289062 160.078125 149.203125 159.320312 156.4375 157.800781 Z M 156.4375 157.800781 " fill-opacity="1" fill-rule="nonzero"/><path fill="#ff6ca1" d="M 144.074219 165.089844 C 141.101562 165.800781 137.785156 166.195312 134.289062 166.195312 C 130.796875 166.195312 127.480469 165.800781 124.511719 165.089844 C 126.230469 163.152344 129.960938 161.8125 134.289062 161.8125 C 138.617188 161.8125 142.351562 163.152344 144.074219 165.089844 Z M 144.074219 165.089844 " fill-opacity="1" fill-rule="nonzero"/><path fill="#ff6ca1" d="M 196.191406 157.800781 C 196.191406 158.320312 196.117188 158.835938 195.96875 159.347656 C 195.820312 159.859375 195.597656 160.355469 195.308594 160.839844 C 195.015625 161.320312 194.65625 161.777344 194.230469 162.210938 C 193.808594 162.644531 193.324219 163.046875 192.785156 163.414062 C 192.246094 163.785156 191.65625 164.113281 191.023438 164.402344 C 190.386719 164.691406 189.714844 164.9375 189.011719 165.136719 C 188.304688 165.335938 187.578125 165.484375 186.828125 165.589844 C 186.078125 165.691406 185.320312 165.742188 184.558594 165.742188 C 183.792969 165.742188 183.039062 165.691406 182.289062 165.589844 C 181.539062 165.484375 180.8125 165.335938 180.105469 165.136719 C 179.398438 164.9375 178.730469 164.691406 178.09375 164.402344 C 177.460938 164.113281 176.871094 163.785156 176.332031 163.414062 C 175.792969 163.046875 175.308594 162.644531 174.882812 162.210938 C 174.460938 161.777344 174.101562 161.320312 173.808594 160.839844 C 173.515625 160.355469 173.296875 159.859375 173.148438 159.347656 C 173 158.835938 172.921875 158.320312 172.921875 157.800781 C 172.921875 157.277344 173 156.761719 173.148438 156.25 C 173.296875 155.738281 173.515625 155.242188 173.808594 154.761719 C 174.101562 154.28125 174.460938 153.820312 174.882812 153.386719 C 175.308594 152.953125 175.792969 152.554688 176.332031 152.183594 C 176.871094 151.816406 177.460938 151.488281 178.09375 151.199219 C 178.730469 150.90625 179.398438 150.664062 180.105469 150.464844 C 180.8125 150.265625 181.539062 150.113281 182.289062 150.011719 C 183.039062 149.910156 183.792969 149.859375 184.558594 149.859375 C 185.320312 149.859375 186.078125 149.910156 186.828125 150.011719 C 187.578125 150.113281 188.304688 150.265625 189.011719 150.464844 C 189.714844 150.664062 190.386719 150.90625 191.023438 151.199219 C 191.65625 151.488281 192.246094 151.816406 192.785156 152.183594 C 193.324219 152.554688 193.808594 152.953125 194.230469 153.386719 C 194.65625 153.820312 195.015625 154.28125 195.308594 154.761719 C 195.597656 155.242188 195.820312 155.738281 195.96875 156.25 C 196.117188 156.761719 196.191406 157.277344 196.191406 157.800781 Z M 196.191406 157.800781 " fill-opacity="1" fill-rule="nonzero"/><path fill="#ff6ca1" d="M 93.121094 157.800781 C 93.121094 158.320312 93.046875 158.835938 92.898438 159.347656 C 92.75 159.859375 92.527344 160.355469 92.234375 160.839844 C 91.945312 161.320312 91.585938 161.777344 91.160156 162.210938 C 90.738281 162.644531 90.253906 163.046875 89.714844 163.414062 C 89.175781 163.785156 88.585938 164.113281 87.949219 164.402344 C 87.316406 164.691406 86.644531 164.9375 85.941406 165.136719 C 85.234375 165.335938 84.507812 165.484375 83.757812 165.589844 C 83.007812 165.691406 82.25 165.742188 81.488281 165.742188 C 80.722656 165.742188 79.96875 165.691406 79.21875 165.589844 C 78.46875 165.484375 77.742188 165.335938 77.035156 165.136719 C 76.328125 164.9375 75.660156 164.691406 75.023438 164.402344 C 74.386719 164.113281 73.800781 163.785156 73.261719 163.414062 C 72.71875 163.046875 72.238281 162.644531 71.8125 162.210938 C 71.390625 161.777344 71.03125 161.320312 70.738281 160.839844 C 70.445312 160.355469 70.226562 159.859375 70.078125 159.347656 C 69.925781 158.835938 69.851562 158.320312 69.851562 157.800781 C 69.851562 157.277344 69.925781 156.761719 70.078125 156.25 C 70.226562 155.738281 70.445312 155.242188 70.738281 154.761719 C 71.03125 154.28125 71.390625 153.820312 71.8125 153.386719 C 72.238281 152.953125 72.71875 152.554688 73.261719 152.183594 C 73.800781 151.816406 74.386719 151.488281 75.023438 151.199219 C 75.660156 150.90625 76.328125 150.664062 77.035156 150.464844 C 77.742188 150.265625 78.46875 150.113281 79.21875 150.011719 C 79.96875 149.910156 80.722656 149.859375 81.488281 149.859375 C 82.25 149.859375 83.007812 149.910156 83.757812 150.011719 C 84.507812 150.113281 85.234375 150.265625 85.941406 150.464844 C 86.644531 150.664062 87.316406 150.90625 87.949219 151.199219 C 88.585938 151.488281 89.175781 151.816406 89.714844 152.183594 C 90.253906 152.554688 90.738281 152.953125 91.160156 153.386719 C 91.585938 153.820312 91.945312 154.28125 92.234375 154.761719 C 92.527344 155.242188 92.75 155.738281 92.898438 156.25 C 93.046875 156.761719 93.121094 157.277344 93.121094 157.800781 Z M 93.121094 157.800781 " fill-opacity="1" fill-rule="nonzero"/><g fill="#000000" fill-opacity="1"><g transform="translate(112.27442, 72.076461)"><g><path d="M 2.21875 0.109375 C 1.6875 0.109375 1.269531 -0.0234375 0.96875 -0.296875 C 0.675781 -0.578125 0.53125 -0.976562 0.53125 -1.5 C 0.53125 -1.8125 0.59375 -2.078125 0.71875 -2.296875 C 0.851562 -2.515625 1.054688 -2.691406 1.328125 -2.828125 C 1.609375 -2.972656 1.972656 -3.082031 2.421875 -3.15625 C 2.816406 -3.21875 3.113281 -3.289062 3.3125 -3.375 C 3.519531 -3.457031 3.65625 -3.546875 3.71875 -3.640625 C 3.789062 -3.742188 3.828125 -3.875 3.828125 -4.03125 C 3.828125 -4.269531 3.742188 -4.453125 3.578125 -4.578125 C 3.410156 -4.710938 3.140625 -4.78125 2.765625 -4.78125 C 2.421875 -4.78125 2.125 -4.710938 1.875 -4.578125 C 1.625 -4.441406 1.394531 -4.242188 1.1875 -3.984375 L 1.09375 -3.984375 L 0.703125 -4.53125 C 0.929688 -4.820312 1.21875 -5.050781 1.5625 -5.21875 C 1.914062 -5.394531 2.316406 -5.484375 2.765625 -5.484375 C 3.398438 -5.484375 3.867188 -5.34375 4.171875 -5.0625 C 4.472656 -4.78125 4.625 -4.394531 4.625 -3.90625 L 4.625 -1.0625 C 4.625 -0.757812 4.75 -0.609375 5 -0.609375 C 5.082031 -0.609375 5.164062 -0.625 5.25 -0.65625 L 5.3125 -0.640625 L 5.40625 -0.078125 C 5.34375 -0.046875 5.265625 -0.0195312 5.171875 0 C 5.078125 0.0195312 4.976562 0.03125 4.875 0.03125 C 4.582031 0.03125 4.359375 -0.03125 4.203125 -0.15625 C 4.054688 -0.28125 3.960938 -0.472656 3.921875 -0.734375 L 3.8125 -0.734375 C 3.664062 -0.453125 3.460938 -0.238281 3.203125 -0.09375 C 2.941406 0.0390625 2.613281 0.109375 2.21875 0.109375 Z M 2.390625 -0.53125 C 2.691406 -0.53125 2.953125 -0.597656 3.171875 -0.734375 C 3.390625 -0.878906 3.554688 -1.078125 3.671875 -1.328125 C 3.785156 -1.578125 3.84375 -1.863281 3.84375 -2.1875 L 3.84375 -2.875 L 3.765625 -2.890625 C 3.640625 -2.804688 3.488281 -2.734375 3.3125 -2.671875 C 3.144531 -2.617188 2.90625 -2.570312 2.59375 -2.53125 C 2.28125 -2.488281 2.03125 -2.421875 1.84375 -2.328125 C 1.664062 -2.242188 1.535156 -2.132812 1.453125 -2 C 1.378906 -1.863281 1.34375 -1.695312 1.34375 -1.5 C 1.34375 -1.1875 1.4375 -0.945312 1.625 -0.78125 C 1.8125 -0.613281 2.066406 -0.53125 2.390625 -0.53125 Z M 2.390625 -0.53125 "/></g></g></g><g fill="#000000" fill-opacity="1"><g transform="translate(117.832951, 72.076461)"><g><path d="M 2.21875 0.109375 C 1.6875 0.109375 1.269531 -0.0234375 0.96875 -0.296875 C 0.675781 -0.578125 0.53125 -0.976562 0.53125 -1.5 C 0.53125 -1.8125 0.59375 -2.078125 0.71875 -2.296875 C 0.851562 -2.515625 1.054688 -2.691406 1.328125 -2.828125 C 1.609375 -2.972656 1.972656 -3.082031 2.421875 -3.15625 C 2.816406 -3.21875 3.113281 -3.289062 3.3125 -3.375 C 3.519531 -3.457031 3.65625 -3.546875 3.71875 -3.640625 C 3.789062 -3.742188 3.828125 -3.875 3.828125 -4.03125 C 3.828125 -4.269531 3.742188 -4.453125 3.578125 -4.578125 C 3.410156 -4.710938 3.140625 -4.78125 2.765625 -4.78125 C 2.421875 -4.78125 2.125 -4.710938 1.875 -4.578125 C 1.625 -4.441406 1.394531 -4.242188 1.1875 -3.984375 L 1.09375 -3.984375 L 0.703125 -4.53125 C 0.929688 -4.820312 1.21875 -5.050781 1.5625 -5.21875 C 1.914062 -5.394531 2.316406 -5.484375 2.765625 -5.484375 C 3.398438 -5.484375 3.867188 -5.34375 4.171875 -5.0625 C 4.472656 -4.78125 4.625 -4.394531 4.625 -3.90625 L 4.625 -1.0625 C 4.625 -0.757812 4.75 -0.609375 5 -0.609375 C 5.082031 -0.609375 5.164062 -0.625 5.25 -0.65625 L 5.3125 -0.640625 L 5.40625 -0.078125 C 5.34375 -0.046875 5.265625 -0.0195312 5.171875 0 C 5.078125 0.0195312 4.976562 0.03125 4.875 0.03125 C 4.582031 0.03125 4.359375 -0.03125 4.203125 -0.15625 C 4.054688 -0.28125 3.960938 -0.472656 3.921875 -0.734375 L 3.8125 -0.734375 C 3.664062 -0.453125 3.460938 -0.238281 3.203125 -0.09375 C 2.941406 0.0390625 2.613281 0.109375 2.21875 0.109375 Z M 2.390625 -0.53125 C 2.691406 -0.53125 2.953125 -0.597656 3.171875 -0.734375 C 3.390625 -0.878906 3.554688 -1.078125 3.671875 -1.328125 C 3.785156 -1.578125 3.84375 -1.863281 3.84375 -2.1875 L 3.84375 -2.875 L 3.765625 -2.890625 C 3.640625 -2.804688 3.488281 -2.734375 3.3125 -2.671875 C 3.144531 -2.617188 2.90625 -2.570312 2.59375 -2.53125 C 2.28125 -2.488281 2.03125 -2.421875 1.84375 -2.328125 C 1.664062 -2.242188 1.535156 -2.132812 1.453125 -2 C 1.378906 -1.863281 1.34375 -1.695312 1.34375 -1.5 C 1.34375 -1.1875 1.4375 -0.945312 1.625 -0.78125 C 1.8125 -0.613281 2.066406 -0.53125 2.390625 -0.53125 Z M 2.390625 -0.53125 "/></g></g></g><g fill="#000000" fill-opacity="1"><g transform="translate(123.391481, 72.076461)"><g><path d="M 2.140625 0.109375 C 1.753906 0.109375 1.453125 0 1.234375 -0.21875 C 1.023438 -0.4375 0.921875 -0.757812 0.921875 -1.1875 L 0.921875 -7.53125 L 1.71875 -7.53125 L 1.71875 -1.25 C 1.71875 -1.019531 1.757812 -0.851562 1.84375 -0.75 C 1.925781 -0.65625 2.0625 -0.609375 2.25 -0.609375 C 2.351562 -0.609375 2.460938 -0.625 2.578125 -0.65625 L 2.640625 -0.640625 L 2.734375 -0.015625 C 2.679688 0.0117188 2.597656 0.0390625 2.484375 0.0625 C 2.378906 0.09375 2.265625 0.109375 2.140625 0.109375 Z M 2.140625 0.109375 "/></g></g></g><g fill="#000000" fill-opacity="1"><g transform="translate(126.314457, 72.076461)"><g><path d="M 2.765625 2.28125 C 1.921875 2.28125 1.300781 2.140625 0.90625 1.859375 C 0.519531 1.578125 0.328125 1.203125 0.328125 0.734375 C 0.328125 0.429688 0.414062 0.1875 0.59375 0 C 0.78125 -0.175781 1.046875 -0.300781 1.390625 -0.375 L 1.390625 -0.484375 C 1.222656 -0.578125 1.097656 -0.6875 1.015625 -0.8125 C 0.929688 -0.9375 0.890625 -1.085938 0.890625 -1.265625 C 0.890625 -1.472656 0.957031 -1.640625 1.09375 -1.765625 C 1.226562 -1.898438 1.425781 -2 1.6875 -2.0625 L 1.6875 -2.171875 C 1.09375 -2.472656 0.796875 -2.972656 0.796875 -3.671875 C 0.796875 -4.023438 0.875 -4.335938 1.03125 -4.609375 C 1.195312 -4.878906 1.425781 -5.09375 1.71875 -5.25 C 2.019531 -5.40625 2.367188 -5.484375 2.765625 -5.484375 C 3.210938 -5.484375 3.585938 -5.382812 3.890625 -5.1875 C 4.003906 -5.3125 4.085938 -5.445312 4.140625 -5.59375 C 4.203125 -5.738281 4.238281 -5.898438 4.25 -6.078125 L 4.359375 -6.140625 L 5.015625 -5.984375 C 4.984375 -5.710938 4.898438 -5.484375 4.765625 -5.296875 C 4.628906 -5.109375 4.441406 -4.953125 4.203125 -4.828125 L 4.203125 -4.71875 C 4.378906 -4.582031 4.507812 -4.421875 4.59375 -4.234375 C 4.675781 -4.054688 4.71875 -3.847656 4.71875 -3.609375 C 4.71875 -3.265625 4.632812 -2.957031 4.46875 -2.6875 C 4.3125 -2.414062 4.082031 -2.203125 3.78125 -2.046875 C 3.488281 -1.898438 3.148438 -1.828125 2.765625 -1.828125 C 2.710938 -1.828125 2.628906 -1.828125 2.515625 -1.828125 C 2.390625 -1.835938 2.296875 -1.84375 2.234375 -1.84375 C 2.054688 -1.84375 1.914062 -1.796875 1.8125 -1.703125 C 1.71875 -1.617188 1.671875 -1.507812 1.671875 -1.375 C 1.671875 -1.207031 1.722656 -1.082031 1.828125 -1 C 1.941406 -0.914062 2.125 -0.875 2.375 -0.875 L 3.640625 -0.828125 C 4.191406 -0.804688 4.597656 -0.675781 4.859375 -0.4375 C 5.128906 -0.207031 5.265625 0.125 5.265625 0.5625 C 5.265625 0.882812 5.175781 1.171875 5 1.421875 C 4.832031 1.679688 4.5625 1.890625 4.1875 2.046875 C 3.8125 2.203125 3.335938 2.28125 2.765625 2.28125 Z M 2.765625 -2.5 C 3.140625 -2.5 3.429688 -2.597656 3.640625 -2.796875 C 3.847656 -2.992188 3.953125 -3.273438 3.953125 -3.640625 C 3.953125 -4.003906 3.847656 -4.285156 3.640625 -4.484375 C 3.429688 -4.691406 3.140625 -4.796875 2.765625 -4.796875 C 2.378906 -4.796875 2.082031 -4.695312 1.875 -4.5 C 1.675781 -4.300781 1.578125 -4.015625 1.578125 -3.640625 C 1.578125 -3.273438 1.675781 -2.992188 1.875 -2.796875 C 2.082031 -2.597656 2.378906 -2.5 2.765625 -2.5 Z M 2.765625 1.59375 C 3.160156 1.59375 3.484375 1.546875 3.734375 1.453125 C 3.992188 1.367188 4.175781 1.253906 4.28125 1.109375 C 4.394531 0.972656 4.453125 0.816406 4.453125 0.640625 C 4.453125 0.472656 4.421875 0.34375 4.359375 0.25 C 4.296875 0.15625 4.195312 0.0820312 4.0625 0.03125 C 3.9375 -0.0195312 3.757812 -0.0507812 3.53125 -0.0625 L 2.328125 -0.125 L 2.15625 -0.125 C 1.476562 -0.113281 1.140625 0.144531 1.140625 0.65625 C 1.140625 1.28125 1.679688 1.59375 2.765625 1.59375 Z M 2.765625 1.59375 "/></g></g></g><g fill="#000000" fill-opacity="1"><g transform="translate(131.736559, 72.076461)"><g><path d="M 3.09375 0.109375 C 2.582031 0.109375 2.140625 0 1.765625 -0.21875 C 1.390625 -0.4375 1.097656 -0.753906 0.890625 -1.171875 C 0.691406 -1.585938 0.59375 -2.09375 0.59375 -2.6875 C 0.59375 -3.28125 0.691406 -3.785156 0.890625 -4.203125 C 1.097656 -4.628906 1.390625 -4.945312 1.765625 -5.15625 C 2.140625 -5.375 2.582031 -5.484375 3.09375 -5.484375 C 3.59375 -5.484375 4.03125 -5.375 4.40625 -5.15625 C 4.78125 -4.945312 5.066406 -4.628906 5.265625 -4.203125 C 5.472656 -3.785156 5.578125 -3.28125 5.578125 -2.6875 C 5.578125 -2.09375 5.472656 -1.585938 5.265625 -1.171875 C 5.066406 -0.753906 4.78125 -0.4375 4.40625 -0.21875 C 4.03125 0 3.59375 0.109375 3.09375 0.109375 Z M 3.09375 -0.609375 C 3.625 -0.609375 4.03125 -0.773438 4.3125 -1.109375 C 4.601562 -1.453125 4.75 -1.976562 4.75 -2.6875 C 4.75 -3.394531 4.601562 -3.914062 4.3125 -4.25 C 4.03125 -4.59375 3.625 -4.765625 3.09375 -4.765625 C 2.550781 -4.765625 2.132812 -4.59375 1.84375 -4.25 C 1.5625 -3.914062 1.421875 -3.394531 1.421875 -2.6875 C 1.421875 -1.976562 1.5625 -1.453125 1.84375 -1.109375 C 2.132812 -0.773438 2.550781 -0.609375 3.09375 -0.609375 Z M 3.09375 -0.609375 "/></g></g></g><g fill="#000000" fill-opacity="1"><g transform="translate(137.904037, 72.076461)"><g><path d="M 0.9375 0 L 0.9375 -5.375 L 1.6875 -5.375 L 1.6875 -4.53125 L 1.796875 -4.515625 C 2.046875 -5.117188 2.515625 -5.421875 3.203125 -5.421875 C 3.578125 -5.421875 3.851562 -5.351562 4.03125 -5.21875 L 3.828125 -4.546875 L 3.734375 -4.53125 C 3.523438 -4.632812 3.300781 -4.6875 3.0625 -4.6875 C 2.632812 -4.6875 2.304688 -4.523438 2.078125 -4.203125 C 1.847656 -3.878906 1.734375 -3.359375 1.734375 -2.640625 L 1.734375 0 Z M 0.9375 0 "/></g></g></g><g fill="#000000" fill-opacity="1"><g transform="translate(142.054662, 72.076461)"><g><path d="M 1.328125 -6.421875 C 1.160156 -6.421875 1.023438 -6.472656 0.921875 -6.578125 C 0.816406 -6.679688 0.765625 -6.8125 0.765625 -6.96875 C 0.765625 -7.132812 0.816406 -7.269531 0.921875 -7.375 C 1.023438 -7.476562 1.160156 -7.53125 1.328125 -7.53125 C 1.503906 -7.53125 1.644531 -7.476562 1.75 -7.375 C 1.851562 -7.269531 1.90625 -7.132812 1.90625 -6.96875 C 1.90625 -6.8125 1.851562 -6.679688 1.75 -6.578125 C 1.644531 -6.472656 1.503906 -6.421875 1.328125 -6.421875 Z M 0.9375 0 L 0.9375 -5.375 L 1.734375 -5.375 L 1.734375 0 Z M 0.9375 0 "/></g></g></g><g fill="#000000" fill-opacity="1"><g transform="translate(144.719447, 72.076461)"><g><path d="M 1.125 0 L 0.25 0 L 1.90625 -2.78125 L 0.328125 -5.375 L 1.21875 -5.375 L 2.46875 -3.3125 L 2.578125 -3.3125 L 3.828125 -5.375 L 4.6875 -5.375 L 3.140625 -2.78125 L 4.765625 0 L 3.875 0 L 2.546875 -2.265625 L 2.4375 -2.265625 Z M 1.125 0 "/></g></g></g></svg>